<?xml version="1.0" encoding="utf-8" standalone="no"?>
<!DOCTYPE svg PUBLIC "-//W3C//DTD SVG 1.1//EN"
  "http://www.w3.org/Graphics/SVG/1.1/DTD/svg11.dtd">
<!-- Created with matplotlib (http://matplotlib.org/) -->
<svg height="504pt" version="1.1" viewBox="0 0 1080 504" width="1080pt" xmlns="http://www.w3.org/2000/svg" xmlns:xlink="http://www.w3.org/1999/xlink">
 <defs>
  <style type="text/css">
*{stroke-linecap:butt;stroke-linejoin:round;}
  </style>
 </defs>
 <g id="figure_1">
  <g id="patch_1">
   <path d="M 0 504 
L 1080 504 
L 1080 0 
L 0 0 
z
" style="fill:#ffffff;"/>
  </g>
  <g id="axes_1">
   <g id="matplotlib.axis_1">
    <g id="xtick_1">
     <g id="line2d_1">
      <defs>
       <path d="M 0 0 
L 0 3.5 
" id="m962221c991" style="stroke:#000000;stroke-width:0.8;"/>
      </defs>
      <g>
       <use style="stroke:#000000;stroke-width:0.8;" x="254.493313" xlink:href="#m962221c991" y="441"/>
      </g>
     </g>
     <g id="text_1">
      <!-- 2018-08-15 -->
      <defs>
       <path d="M 19.1875 8.296875 
L 53.609375 8.296875 
L 53.609375 0 
L 7.328125 0 
L 7.328125 8.296875 
Q 12.9375 14.109375 22.625 23.890625 
Q 32.328125 33.6875 34.8125 36.53125 
Q 39.546875 41.84375 41.421875 45.53125 
Q 43.3125 49.21875 43.3125 52.78125 
Q 43.3125 58.59375 39.234375 62.25 
Q 35.15625 65.921875 28.609375 65.921875 
Q 23.96875 65.921875 18.8125 64.3125 
Q 13.671875 62.703125 7.8125 59.421875 
L 7.8125 69.390625 
Q 13.765625 71.78125 18.9375 73 
Q 24.125 74.21875 28.421875 74.21875 
Q 39.75 74.21875 46.484375 68.546875 
Q 53.21875 62.890625 53.21875 53.421875 
Q 53.21875 48.921875 51.53125 44.890625 
Q 49.859375 40.875 45.40625 35.40625 
Q 44.1875 33.984375 37.640625 27.21875 
Q 31.109375 20.453125 19.1875 8.296875 
z
" id="DejaVuSans-32"/>
       <path d="M 31.78125 66.40625 
Q 24.171875 66.40625 20.328125 58.90625 
Q 16.5 51.421875 16.5 36.375 
Q 16.5 21.390625 20.328125 13.890625 
Q 24.171875 6.390625 31.78125 6.390625 
Q 39.453125 6.390625 43.28125 13.890625 
Q 47.125 21.390625 47.125 36.375 
Q 47.125 51.421875 43.28125 58.90625 
Q 39.453125 66.40625 31.78125 66.40625 
z
M 31.78125 74.21875 
Q 44.046875 74.21875 50.515625 64.515625 
Q 56.984375 54.828125 56.984375 36.375 
Q 56.984375 17.96875 50.515625 8.265625 
Q 44.046875 -1.421875 31.78125 -1.421875 
Q 19.53125 -1.421875 13.0625 8.265625 
Q 6.59375 17.96875 6.59375 36.375 
Q 6.59375 54.828125 13.0625 64.515625 
Q 19.53125 74.21875 31.78125 74.21875 
z
" id="DejaVuSans-30"/>
       <path d="M 12.40625 8.296875 
L 28.515625 8.296875 
L 28.515625 63.921875 
L 10.984375 60.40625 
L 10.984375 69.390625 
L 28.421875 72.90625 
L 38.28125 72.90625 
L 38.28125 8.296875 
L 54.390625 8.296875 
L 54.390625 0 
L 12.40625 0 
z
" id="DejaVuSans-31"/>
       <path d="M 31.78125 34.625 
Q 24.75 34.625 20.71875 30.859375 
Q 16.703125 27.09375 16.703125 20.515625 
Q 16.703125 13.921875 20.71875 10.15625 
Q 24.75 6.390625 31.78125 6.390625 
Q 38.8125 6.390625 42.859375 10.171875 
Q 46.921875 13.96875 46.921875 20.515625 
Q 46.921875 27.09375 42.890625 30.859375 
Q 38.875 34.625 31.78125 34.625 
z
M 21.921875 38.8125 
Q 15.578125 40.375 12.03125 44.71875 
Q 8.5 49.078125 8.5 55.328125 
Q 8.5 64.0625 14.71875 69.140625 
Q 20.953125 74.21875 31.78125 74.21875 
Q 42.671875 74.21875 48.875 69.140625 
Q 55.078125 64.0625 55.078125 55.328125 
Q 55.078125 49.078125 51.53125 44.71875 
Q 48 40.375 41.703125 38.8125 
Q 48.828125 37.15625 52.796875 32.3125 
Q 56.78125 27.484375 56.78125 20.515625 
Q 56.78125 9.90625 50.3125 4.234375 
Q 43.84375 -1.421875 31.78125 -1.421875 
Q 19.734375 -1.421875 13.25 4.234375 
Q 6.78125 9.90625 6.78125 20.515625 
Q 6.78125 27.484375 10.78125 32.3125 
Q 14.796875 37.15625 21.921875 38.8125 
z
M 18.3125 54.390625 
Q 18.3125 48.734375 21.84375 45.5625 
Q 25.390625 42.390625 31.78125 42.390625 
Q 38.140625 42.390625 41.71875 45.5625 
Q 45.3125 48.734375 45.3125 54.390625 
Q 45.3125 60.0625 41.71875 63.234375 
Q 38.140625 66.40625 31.78125 66.40625 
Q 25.390625 66.40625 21.84375 63.234375 
Q 18.3125 60.0625 18.3125 54.390625 
z
" id="DejaVuSans-38"/>
       <path d="M 4.890625 31.390625 
L 31.203125 31.390625 
L 31.203125 23.390625 
L 4.890625 23.390625 
z
" id="DejaVuSans-2d"/>
       <path d="M 10.796875 72.90625 
L 49.515625 72.90625 
L 49.515625 64.59375 
L 19.828125 64.59375 
L 19.828125 46.734375 
Q 21.96875 47.46875 24.109375 47.828125 
Q 26.265625 48.1875 28.421875 48.1875 
Q 40.625 48.1875 47.75 41.5 
Q 54.890625 34.8125 54.890625 23.390625 
Q 54.890625 11.625 47.5625 5.09375 
Q 40.234375 -1.421875 26.90625 -1.421875 
Q 22.3125 -1.421875 17.546875 -0.640625 
Q 12.796875 0.140625 7.71875 1.703125 
L 7.71875 11.625 
Q 12.109375 9.234375 16.796875 8.0625 
Q 21.484375 6.890625 26.703125 6.890625 
Q 35.15625 6.890625 40.078125 11.328125 
Q 45.015625 15.765625 45.015625 23.390625 
Q 45.015625 31 40.078125 35.4375 
Q 35.15625 39.890625 26.703125 39.890625 
Q 22.75 39.890625 18.8125 39.015625 
Q 14.890625 38.140625 10.796875 36.28125 
z
" id="DejaVuSans-35"/>
      </defs>
      <g transform="translate(213.812376 458.637812)scale(0.14 -0.14)">
       <use xlink:href="#DejaVuSans-32"/>
       <use x="63.623047" xlink:href="#DejaVuSans-30"/>
       <use x="127.246094" xlink:href="#DejaVuSans-31"/>
       <use x="190.869141" xlink:href="#DejaVuSans-38"/>
       <use x="254.492188" xlink:href="#DejaVuSans-2d"/>
       <use x="290.576172" xlink:href="#DejaVuSans-30"/>
       <use x="354.199219" xlink:href="#DejaVuSans-38"/>
       <use x="417.822266" xlink:href="#DejaVuSans-2d"/>
       <use x="453.90625" xlink:href="#DejaVuSans-31"/>
       <use x="517.529297" xlink:href="#DejaVuSans-35"/>
      </g>
     </g>
    </g>
    <g id="xtick_2">
     <g id="line2d_2">
      <g>
       <use style="stroke:#000000;stroke-width:0.8;" x="391.355179" xlink:href="#m962221c991" y="441"/>
      </g>
     </g>
     <g id="text_2">
      <!-- 2018-08-29 -->
      <defs>
       <path d="M 10.984375 1.515625 
L 10.984375 10.5 
Q 14.703125 8.734375 18.5 7.8125 
Q 22.3125 6.890625 25.984375 6.890625 
Q 35.75 6.890625 40.890625 13.453125 
Q 46.046875 20.015625 46.78125 33.40625 
Q 43.953125 29.203125 39.59375 26.953125 
Q 35.25 24.703125 29.984375 24.703125 
Q 19.046875 24.703125 12.671875 31.3125 
Q 6.296875 37.9375 6.296875 49.421875 
Q 6.296875 60.640625 12.9375 67.421875 
Q 19.578125 74.21875 30.609375 74.21875 
Q 43.265625 74.21875 49.921875 64.515625 
Q 56.59375 54.828125 56.59375 36.375 
Q 56.59375 19.140625 48.40625 8.859375 
Q 40.234375 -1.421875 26.421875 -1.421875 
Q 22.703125 -1.421875 18.890625 -0.6875 
Q 15.09375 0.046875 10.984375 1.515625 
z
M 30.609375 32.421875 
Q 37.25 32.421875 41.125 36.953125 
Q 45.015625 41.5 45.015625 49.421875 
Q 45.015625 57.28125 41.125 61.84375 
Q 37.25 66.40625 30.609375 66.40625 
Q 23.96875 66.40625 20.09375 61.84375 
Q 16.21875 57.28125 16.21875 49.421875 
Q 16.21875 41.5 20.09375 36.953125 
Q 23.96875 32.421875 30.609375 32.421875 
z
" id="DejaVuSans-39"/>
      </defs>
      <g transform="translate(350.674241 458.637812)scale(0.14 -0.14)">
       <use xlink:href="#DejaVuSans-32"/>
       <use x="63.623047" xlink:href="#DejaVuSans-30"/>
       <use x="127.246094" xlink:href="#DejaVuSans-31"/>
       <use x="190.869141" xlink:href="#DejaVuSans-38"/>
       <use x="254.492188" xlink:href="#DejaVuSans-2d"/>
       <use x="290.576172" xlink:href="#DejaVuSans-30"/>
       <use x="354.199219" xlink:href="#DejaVuSans-38"/>
       <use x="417.822266" xlink:href="#DejaVuSans-2d"/>
       <use x="453.90625" xlink:href="#DejaVuSans-32"/>
       <use x="517.529297" xlink:href="#DejaVuSans-39"/>
      </g>
     </g>
    </g>
    <g id="xtick_3">
     <g id="line2d_3">
      <g>
       <use style="stroke:#000000;stroke-width:0.8;" x="528.217045" xlink:href="#m962221c991" y="441"/>
      </g>
     </g>
     <g id="text_3">
      <!-- 2018-09-12 -->
      <g transform="translate(487.536107 458.637812)scale(0.14 -0.14)">
       <use xlink:href="#DejaVuSans-32"/>
       <use x="63.623047" xlink:href="#DejaVuSans-30"/>
       <use x="127.246094" xlink:href="#DejaVuSans-31"/>
       <use x="190.869141" xlink:href="#DejaVuSans-38"/>
       <use x="254.492188" xlink:href="#DejaVuSans-2d"/>
       <use x="290.576172" xlink:href="#DejaVuSans-30"/>
       <use x="354.199219" xlink:href="#DejaVuSans-39"/>
       <use x="417.822266" xlink:href="#DejaVuSans-2d"/>
       <use x="453.90625" xlink:href="#DejaVuSans-31"/>
       <use x="517.529297" xlink:href="#DejaVuSans-32"/>
      </g>
     </g>
    </g>
    <g id="xtick_4">
     <g id="line2d_4">
      <g>
       <use style="stroke:#000000;stroke-width:0.8;" x="665.07891" xlink:href="#m962221c991" y="441"/>
      </g>
     </g>
     <g id="text_4">
      <!-- 2018-09-26 -->
      <defs>
       <path d="M 33.015625 40.375 
Q 26.375 40.375 22.484375 35.828125 
Q 18.609375 31.296875 18.609375 23.390625 
Q 18.609375 15.53125 22.484375 10.953125 
Q 26.375 6.390625 33.015625 6.390625 
Q 39.65625 6.390625 43.53125 10.953125 
Q 47.40625 15.53125 47.40625 23.390625 
Q 47.40625 31.296875 43.53125 35.828125 
Q 39.65625 40.375 33.015625 40.375 
z
M 52.59375 71.296875 
L 52.59375 62.3125 
Q 48.875 64.0625 45.09375 64.984375 
Q 41.3125 65.921875 37.59375 65.921875 
Q 27.828125 65.921875 22.671875 59.328125 
Q 17.53125 52.734375 16.796875 39.40625 
Q 19.671875 43.65625 24.015625 45.921875 
Q 28.375 48.1875 33.59375 48.1875 
Q 44.578125 48.1875 50.953125 41.515625 
Q 57.328125 34.859375 57.328125 23.390625 
Q 57.328125 12.15625 50.6875 5.359375 
Q 44.046875 -1.421875 33.015625 -1.421875 
Q 20.359375 -1.421875 13.671875 8.265625 
Q 6.984375 17.96875 6.984375 36.375 
Q 6.984375 53.65625 15.1875 63.9375 
Q 23.390625 74.21875 37.203125 74.21875 
Q 40.921875 74.21875 44.703125 73.484375 
Q 48.484375 72.75 52.59375 71.296875 
z
" id="DejaVuSans-36"/>
      </defs>
      <g transform="translate(624.397973 458.637812)scale(0.14 -0.14)">
       <use xlink:href="#DejaVuSans-32"/>
       <use x="63.623047" xlink:href="#DejaVuSans-30"/>
       <use x="127.246094" xlink:href="#DejaVuSans-31"/>
       <use x="190.869141" xlink:href="#DejaVuSans-38"/>
       <use x="254.492188" xlink:href="#DejaVuSans-2d"/>
       <use x="290.576172" xlink:href="#DejaVuSans-30"/>
       <use x="354.199219" xlink:href="#DejaVuSans-39"/>
       <use x="417.822266" xlink:href="#DejaVuSans-2d"/>
       <use x="453.90625" xlink:href="#DejaVuSans-32"/>
       <use x="517.529297" xlink:href="#DejaVuSans-36"/>
      </g>
     </g>
    </g>
    <g id="xtick_5">
     <g id="line2d_5">
      <g>
       <use style="stroke:#000000;stroke-width:0.8;" x="801.940776" xlink:href="#m962221c991" y="441"/>
      </g>
     </g>
     <g id="text_5">
      <!-- 2018-10-10 -->
      <g transform="translate(761.259838 458.637812)scale(0.14 -0.14)">
       <use xlink:href="#DejaVuSans-32"/>
       <use x="63.623047" xlink:href="#DejaVuSans-30"/>
       <use x="127.246094" xlink:href="#DejaVuSans-31"/>
       <use x="190.869141" xlink:href="#DejaVuSans-38"/>
       <use x="254.492188" xlink:href="#DejaVuSans-2d"/>
       <use x="290.576172" xlink:href="#DejaVuSans-31"/>
       <use x="354.199219" xlink:href="#DejaVuSans-30"/>
       <use x="417.822266" xlink:href="#DejaVuSans-2d"/>
       <use x="453.90625" xlink:href="#DejaVuSans-31"/>
       <use x="517.529297" xlink:href="#DejaVuSans-30"/>
      </g>
     </g>
    </g>
    <g id="xtick_6">
     <g id="line2d_6">
      <g>
       <use style="stroke:#000000;stroke-width:0.8;" x="938.802642" xlink:href="#m962221c991" y="441"/>
      </g>
     </g>
     <g id="text_6">
      <!-- 2018-10-24 -->
      <defs>
       <path d="M 37.796875 64.3125 
L 12.890625 25.390625 
L 37.796875 25.390625 
z
M 35.203125 72.90625 
L 47.609375 72.90625 
L 47.609375 25.390625 
L 58.015625 25.390625 
L 58.015625 17.1875 
L 47.609375 17.1875 
L 47.609375 0 
L 37.796875 0 
L 37.796875 17.1875 
L 4.890625 17.1875 
L 4.890625 26.703125 
z
" id="DejaVuSans-34"/>
      </defs>
      <g transform="translate(898.121704 458.637812)scale(0.14 -0.14)">
       <use xlink:href="#DejaVuSans-32"/>
       <use x="63.623047" xlink:href="#DejaVuSans-30"/>
       <use x="127.246094" xlink:href="#DejaVuSans-31"/>
       <use x="190.869141" xlink:href="#DejaVuSans-38"/>
       <use x="254.492188" xlink:href="#DejaVuSans-2d"/>
       <use x="290.576172" xlink:href="#DejaVuSans-31"/>
       <use x="354.199219" xlink:href="#DejaVuSans-30"/>
       <use x="417.822266" xlink:href="#DejaVuSans-2d"/>
       <use x="453.90625" xlink:href="#DejaVuSans-32"/>
       <use x="517.529297" xlink:href="#DejaVuSans-34"/>
      </g>
     </g>
    </g>
    <g id="text_7">
     <!-- Date -->
     <defs>
      <path d="M 19.671875 64.796875 
L 19.671875 8.109375 
L 31.59375 8.109375 
Q 46.6875 8.109375 53.6875 14.9375 
Q 60.6875 21.78125 60.6875 36.53125 
Q 60.6875 51.171875 53.6875 57.984375 
Q 46.6875 64.796875 31.59375 64.796875 
z
M 9.8125 72.90625 
L 30.078125 72.90625 
Q 51.265625 72.90625 61.171875 64.09375 
Q 71.09375 55.28125 71.09375 36.53125 
Q 71.09375 17.671875 61.125 8.828125 
Q 51.171875 0 30.078125 0 
L 9.8125 0 
z
" id="DejaVuSans-44"/>
      <path d="M 34.28125 27.484375 
Q 23.390625 27.484375 19.1875 25 
Q 14.984375 22.515625 14.984375 16.5 
Q 14.984375 11.71875 18.140625 8.90625 
Q 21.296875 6.109375 26.703125 6.109375 
Q 34.1875 6.109375 38.703125 11.40625 
Q 43.21875 16.703125 43.21875 25.484375 
L 43.21875 27.484375 
z
M 52.203125 31.203125 
L 52.203125 0 
L 43.21875 0 
L 43.21875 8.296875 
Q 40.140625 3.328125 35.546875 0.953125 
Q 30.953125 -1.421875 24.3125 -1.421875 
Q 15.921875 -1.421875 10.953125 3.296875 
Q 6 8.015625 6 15.921875 
Q 6 25.140625 12.171875 29.828125 
Q 18.359375 34.515625 30.609375 34.515625 
L 43.21875 34.515625 
L 43.21875 35.40625 
Q 43.21875 41.609375 39.140625 45 
Q 35.0625 48.390625 27.6875 48.390625 
Q 23 48.390625 18.546875 47.265625 
Q 14.109375 46.140625 10.015625 43.890625 
L 10.015625 52.203125 
Q 14.9375 54.109375 19.578125 55.046875 
Q 24.21875 56 28.609375 56 
Q 40.484375 56 46.34375 49.84375 
Q 52.203125 43.703125 52.203125 31.203125 
z
" id="DejaVuSans-61"/>
      <path d="M 18.3125 70.21875 
L 18.3125 54.6875 
L 36.8125 54.6875 
L 36.8125 47.703125 
L 18.3125 47.703125 
L 18.3125 18.015625 
Q 18.3125 11.328125 20.140625 9.421875 
Q 21.96875 7.515625 27.59375 7.515625 
L 36.8125 7.515625 
L 36.8125 0 
L 27.59375 0 
Q 17.1875 0 13.234375 3.875 
Q 9.28125 7.765625 9.28125 18.015625 
L 9.28125 47.703125 
L 2.6875 47.703125 
L 2.6875 54.6875 
L 9.28125 54.6875 
L 9.28125 70.21875 
z
" id="DejaVuSans-74"/>
      <path d="M 56.203125 29.59375 
L 56.203125 25.203125 
L 14.890625 25.203125 
Q 15.484375 15.921875 20.484375 11.0625 
Q 25.484375 6.203125 34.421875 6.203125 
Q 39.59375 6.203125 44.453125 7.46875 
Q 49.3125 8.734375 54.109375 11.28125 
L 54.109375 2.78125 
Q 49.265625 0.734375 44.1875 -0.34375 
Q 39.109375 -1.421875 33.890625 -1.421875 
Q 20.796875 -1.421875 13.15625 6.1875 
Q 5.515625 13.8125 5.515625 26.8125 
Q 5.515625 40.234375 12.765625 48.109375 
Q 20.015625 56 32.328125 56 
Q 43.359375 56 49.78125 48.890625 
Q 56.203125 41.796875 56.203125 29.59375 
z
M 47.21875 32.234375 
Q 47.125 39.59375 43.09375 43.984375 
Q 39.0625 48.390625 32.421875 48.390625 
Q 24.90625 48.390625 20.390625 44.140625 
Q 15.875 39.890625 15.1875 32.171875 
z
" id="DejaVuSans-65"/>
     </defs>
     <g transform="translate(531.988594 479.226562)scale(0.18 -0.18)">
      <use xlink:href="#DejaVuSans-44"/>
      <use x="77.001953" xlink:href="#DejaVuSans-61"/>
      <use x="138.28125" xlink:href="#DejaVuSans-74"/>
      <use x="177.490234" xlink:href="#DejaVuSans-65"/>
     </g>
    </g>
   </g>
   <g id="matplotlib.axis_2">
    <g id="ytick_1">
     <g id="line2d_7">
      <path clip-path="url(#p4ac0cd4d97)" d="M 135 420.262197 
L 972 420.262197 
" style="fill:none;stroke:#a6a6a6;stroke-dasharray:2.96,1.28;stroke-dashoffset:0;stroke-width:0.8;"/>
     </g>
     <g id="line2d_8">
      <defs>
       <path d="M 0 0 
L -3.5 0 
" id="m3535444395" style="stroke:#ffffff;stroke-width:0.8;"/>
      </defs>
      <g>
       <use style="fill:#ffffff;stroke:#ffffff;stroke-width:0.8;" x="135" xlink:href="#m3535444395" y="420.262197"/>
      </g>
     </g>
     <g id="text_8">
      <!-- -100 -->
      <g transform="translate(96.226562 425.581104)scale(0.14 -0.14)">
       <use xlink:href="#DejaVuSans-2d"/>
       <use x="36.083984" xlink:href="#DejaVuSans-31"/>
       <use x="99.707031" xlink:href="#DejaVuSans-30"/>
       <use x="163.330078" xlink:href="#DejaVuSans-30"/>
      </g>
     </g>
    </g>
    <g id="ytick_2">
     <g id="line2d_9">
      <path clip-path="url(#p4ac0cd4d97)" d="M 135 370.790112 
L 972 370.790112 
" style="fill:none;stroke:#a6a6a6;stroke-dasharray:2.96,1.28;stroke-dashoffset:0;stroke-width:0.8;"/>
     </g>
     <g id="line2d_10">
      <g>
       <use style="fill:#ffffff;stroke:#ffffff;stroke-width:0.8;" x="135" xlink:href="#m3535444395" y="370.790112"/>
      </g>
     </g>
     <g id="text_9">
      <!-- -75 -->
      <defs>
       <path d="M 8.203125 72.90625 
L 55.078125 72.90625 
L 55.078125 68.703125 
L 28.609375 0 
L 18.3125 0 
L 43.21875 64.59375 
L 8.203125 64.59375 
z
" id="DejaVuSans-37"/>
      </defs>
      <g transform="translate(105.134062 376.109018)scale(0.14 -0.14)">
       <use xlink:href="#DejaVuSans-2d"/>
       <use x="36.083984" xlink:href="#DejaVuSans-37"/>
       <use x="99.707031" xlink:href="#DejaVuSans-35"/>
      </g>
     </g>
    </g>
    <g id="ytick_3">
     <g id="line2d_11">
      <path clip-path="url(#p4ac0cd4d97)" d="M 135 321.318026 
L 972 321.318026 
" style="fill:none;stroke:#a6a6a6;stroke-dasharray:2.96,1.28;stroke-dashoffset:0;stroke-width:0.8;"/>
     </g>
     <g id="line2d_12">
      <g>
       <use style="fill:#ffffff;stroke:#ffffff;stroke-width:0.8;" x="135" xlink:href="#m3535444395" y="321.318026"/>
      </g>
     </g>
     <g id="text_10">
      <!-- -50 -->
      <g transform="translate(105.134062 326.636933)scale(0.14 -0.14)">
       <use xlink:href="#DejaVuSans-2d"/>
       <use x="36.083984" xlink:href="#DejaVuSans-35"/>
       <use x="99.707031" xlink:href="#DejaVuSans-30"/>
      </g>
     </g>
    </g>
    <g id="ytick_4">
     <g id="line2d_13">
      <path clip-path="url(#p4ac0cd4d97)" d="M 135 271.845941 
L 972 271.845941 
" style="fill:none;stroke:#a6a6a6;stroke-dasharray:2.96,1.28;stroke-dashoffset:0;stroke-width:0.8;"/>
     </g>
     <g id="line2d_14">
      <g>
       <use style="fill:#ffffff;stroke:#ffffff;stroke-width:0.8;" x="135" xlink:href="#m3535444395" y="271.845941"/>
      </g>
     </g>
     <g id="text_11">
      <!-- -25 -->
      <g transform="translate(105.134062 277.164847)scale(0.14 -0.14)">
       <use xlink:href="#DejaVuSans-2d"/>
       <use x="36.083984" xlink:href="#DejaVuSans-32"/>
       <use x="99.707031" xlink:href="#DejaVuSans-35"/>
      </g>
     </g>
    </g>
    <g id="ytick_5">
     <g id="line2d_15">
      <path clip-path="url(#p4ac0cd4d97)" d="M 135 222.373855 
L 972 222.373855 
" style="fill:none;stroke:#a6a6a6;stroke-dasharray:2.96,1.28;stroke-dashoffset:0;stroke-width:0.8;"/>
     </g>
     <g id="line2d_16">
      <g>
       <use style="fill:#ffffff;stroke:#ffffff;stroke-width:0.8;" x="135" xlink:href="#m3535444395" y="222.373855"/>
      </g>
     </g>
     <g id="text_12">
      <!-- 0 -->
      <g transform="translate(119.0925 227.692762)scale(0.14 -0.14)">
       <use xlink:href="#DejaVuSans-30"/>
      </g>
     </g>
    </g>
    <g id="ytick_6">
     <g id="line2d_17">
      <path clip-path="url(#p4ac0cd4d97)" d="M 135 172.90177 
L 972 172.90177 
" style="fill:none;stroke:#a6a6a6;stroke-dasharray:2.96,1.28;stroke-dashoffset:0;stroke-width:0.8;"/>
     </g>
     <g id="line2d_18">
      <g>
       <use style="fill:#ffffff;stroke:#ffffff;stroke-width:0.8;" x="135" xlink:href="#m3535444395" y="172.90177"/>
      </g>
     </g>
     <g id="text_13">
      <!-- 25 -->
      <g transform="translate(110.185 178.220676)scale(0.14 -0.14)">
       <use xlink:href="#DejaVuSans-32"/>
       <use x="63.623047" xlink:href="#DejaVuSans-35"/>
      </g>
     </g>
    </g>
    <g id="ytick_7">
     <g id="line2d_19">
      <path clip-path="url(#p4ac0cd4d97)" d="M 135 123.429684 
L 972 123.429684 
" style="fill:none;stroke:#a6a6a6;stroke-dasharray:2.96,1.28;stroke-dashoffset:0;stroke-width:0.8;"/>
     </g>
     <g id="line2d_20">
      <g>
       <use style="fill:#ffffff;stroke:#ffffff;stroke-width:0.8;" x="135" xlink:href="#m3535444395" y="123.429684"/>
      </g>
     </g>
     <g id="text_14">
      <!-- 50 -->
      <g transform="translate(110.185 128.748591)scale(0.14 -0.14)">
       <use xlink:href="#DejaVuSans-35"/>
       <use x="63.623047" xlink:href="#DejaVuSans-30"/>
      </g>
     </g>
    </g>
    <g id="ytick_8">
     <g id="line2d_21">
      <path clip-path="url(#p4ac0cd4d97)" d="M 135 73.957599 
L 972 73.957599 
" style="fill:none;stroke:#a6a6a6;stroke-dasharray:2.96,1.28;stroke-dashoffset:0;stroke-width:0.8;"/>
     </g>
     <g id="line2d_22">
      <g>
       <use style="fill:#ffffff;stroke:#ffffff;stroke-width:0.8;" x="135" xlink:href="#m3535444395" y="73.957599"/>
      </g>
     </g>
     <g id="text_15">
      <!-- 75 -->
      <g transform="translate(110.185 79.276505)scale(0.14 -0.14)">
       <use xlink:href="#DejaVuSans-37"/>
       <use x="63.623047" xlink:href="#DejaVuSans-35"/>
      </g>
     </g>
    </g>
    <g id="text_16">
     <!-- Amount (ETH) -->
     <defs>
      <path d="M 34.1875 63.1875 
L 20.796875 26.90625 
L 47.609375 26.90625 
z
M 28.609375 72.90625 
L 39.796875 72.90625 
L 67.578125 0 
L 57.328125 0 
L 50.6875 18.703125 
L 17.828125 18.703125 
L 11.1875 0 
L 0.78125 0 
z
" id="DejaVuSans-41"/>
      <path d="M 52 44.1875 
Q 55.375 50.25 60.0625 53.125 
Q 64.75 56 71.09375 56 
Q 79.640625 56 84.28125 50.015625 
Q 88.921875 44.046875 88.921875 33.015625 
L 88.921875 0 
L 79.890625 0 
L 79.890625 32.71875 
Q 79.890625 40.578125 77.09375 44.375 
Q 74.3125 48.1875 68.609375 48.1875 
Q 61.625 48.1875 57.5625 43.546875 
Q 53.515625 38.921875 53.515625 30.90625 
L 53.515625 0 
L 44.484375 0 
L 44.484375 32.71875 
Q 44.484375 40.625 41.703125 44.40625 
Q 38.921875 48.1875 33.109375 48.1875 
Q 26.21875 48.1875 22.15625 43.53125 
Q 18.109375 38.875 18.109375 30.90625 
L 18.109375 0 
L 9.078125 0 
L 9.078125 54.6875 
L 18.109375 54.6875 
L 18.109375 46.1875 
Q 21.1875 51.21875 25.484375 53.609375 
Q 29.78125 56 35.6875 56 
Q 41.65625 56 45.828125 52.96875 
Q 50 49.953125 52 44.1875 
z
" id="DejaVuSans-6d"/>
      <path d="M 30.609375 48.390625 
Q 23.390625 48.390625 19.1875 42.75 
Q 14.984375 37.109375 14.984375 27.296875 
Q 14.984375 17.484375 19.15625 11.84375 
Q 23.34375 6.203125 30.609375 6.203125 
Q 37.796875 6.203125 41.984375 11.859375 
Q 46.1875 17.53125 46.1875 27.296875 
Q 46.1875 37.015625 41.984375 42.703125 
Q 37.796875 48.390625 30.609375 48.390625 
z
M 30.609375 56 
Q 42.328125 56 49.015625 48.375 
Q 55.71875 40.765625 55.71875 27.296875 
Q 55.71875 13.875 49.015625 6.21875 
Q 42.328125 -1.421875 30.609375 -1.421875 
Q 18.84375 -1.421875 12.171875 6.21875 
Q 5.515625 13.875 5.515625 27.296875 
Q 5.515625 40.765625 12.171875 48.375 
Q 18.84375 56 30.609375 56 
z
" id="DejaVuSans-6f"/>
      <path d="M 8.5 21.578125 
L 8.5 54.6875 
L 17.484375 54.6875 
L 17.484375 21.921875 
Q 17.484375 14.15625 20.5 10.265625 
Q 23.53125 6.390625 29.59375 6.390625 
Q 36.859375 6.390625 41.078125 11.03125 
Q 45.3125 15.671875 45.3125 23.6875 
L 45.3125 54.6875 
L 54.296875 54.6875 
L 54.296875 0 
L 45.3125 0 
L 45.3125 8.40625 
Q 42.046875 3.421875 37.71875 1 
Q 33.40625 -1.421875 27.6875 -1.421875 
Q 18.265625 -1.421875 13.375 4.4375 
Q 8.5 10.296875 8.5 21.578125 
z
M 31.109375 56 
z
" id="DejaVuSans-75"/>
      <path d="M 54.890625 33.015625 
L 54.890625 0 
L 45.90625 0 
L 45.90625 32.71875 
Q 45.90625 40.484375 42.875 44.328125 
Q 39.84375 48.1875 33.796875 48.1875 
Q 26.515625 48.1875 22.3125 43.546875 
Q 18.109375 38.921875 18.109375 30.90625 
L 18.109375 0 
L 9.078125 0 
L 9.078125 54.6875 
L 18.109375 54.6875 
L 18.109375 46.1875 
Q 21.34375 51.125 25.703125 53.5625 
Q 30.078125 56 35.796875 56 
Q 45.21875 56 50.046875 50.171875 
Q 54.890625 44.34375 54.890625 33.015625 
z
" id="DejaVuSans-6e"/>
      <path id="DejaVuSans-20"/>
      <path d="M 31 75.875 
Q 24.46875 64.65625 21.28125 53.65625 
Q 18.109375 42.671875 18.109375 31.390625 
Q 18.109375 20.125 21.3125 9.0625 
Q 24.515625 -2 31 -13.1875 
L 23.1875 -13.1875 
Q 15.875 -1.703125 12.234375 9.375 
Q 8.59375 20.453125 8.59375 31.390625 
Q 8.59375 42.28125 12.203125 53.3125 
Q 15.828125 64.359375 23.1875 75.875 
z
" id="DejaVuSans-28"/>
      <path d="M 9.8125 72.90625 
L 55.90625 72.90625 
L 55.90625 64.59375 
L 19.671875 64.59375 
L 19.671875 43.015625 
L 54.390625 43.015625 
L 54.390625 34.71875 
L 19.671875 34.71875 
L 19.671875 8.296875 
L 56.78125 8.296875 
L 56.78125 0 
L 9.8125 0 
z
" id="DejaVuSans-45"/>
      <path d="M -0.296875 72.90625 
L 61.375 72.90625 
L 61.375 64.59375 
L 35.5 64.59375 
L 35.5 0 
L 25.59375 0 
L 25.59375 64.59375 
L -0.296875 64.59375 
z
" id="DejaVuSans-54"/>
      <path d="M 9.8125 72.90625 
L 19.671875 72.90625 
L 19.671875 43.015625 
L 55.515625 43.015625 
L 55.515625 72.90625 
L 65.375 72.90625 
L 65.375 0 
L 55.515625 0 
L 55.515625 34.71875 
L 19.671875 34.71875 
L 19.671875 0 
L 9.8125 0 
z
" id="DejaVuSans-48"/>
      <path d="M 8.015625 75.875 
L 15.828125 75.875 
Q 23.140625 64.359375 26.78125 53.3125 
Q 30.421875 42.28125 30.421875 31.390625 
Q 30.421875 20.453125 26.78125 9.375 
Q 23.140625 -1.703125 15.828125 -13.1875 
L 8.015625 -13.1875 
Q 14.5 -2 17.703125 9.0625 
Q 20.90625 20.125 20.90625 31.390625 
Q 20.90625 42.671875 17.703125 53.65625 
Q 14.5 64.65625 8.015625 75.875 
z
" id="DejaVuSans-29"/>
     </defs>
     <g transform="translate(88.483125 313.941094)rotate(-90)scale(0.18 -0.18)">
      <use xlink:href="#DejaVuSans-41"/>
      <use x="68.408203" xlink:href="#DejaVuSans-6d"/>
      <use x="165.820312" xlink:href="#DejaVuSans-6f"/>
      <use x="227.001953" xlink:href="#DejaVuSans-75"/>
      <use x="290.380859" xlink:href="#DejaVuSans-6e"/>
      <use x="353.759766" xlink:href="#DejaVuSans-74"/>
      <use x="392.96875" xlink:href="#DejaVuSans-20"/>
      <use x="424.755859" xlink:href="#DejaVuSans-28"/>
      <use x="463.769531" xlink:href="#DejaVuSans-45"/>
      <use x="526.953125" xlink:href="#DejaVuSans-54"/>
      <use x="588.037109" xlink:href="#DejaVuSans-48"/>
      <use x="663.232422" xlink:href="#DejaVuSans-29"/>
     </g>
    </g>
   </g>
   <g id="line2d_23">
    <path clip-path="url(#p4ac0cd4d97)" d="M 173.045455 222.34813 
L 174.677025 217.273877 
L 176.336091 217.273877 
L 177.964833 220.073997 
L 179.620391 221.049587 
L 181.307969 221.026829 
L 182.976313 222.166666 
L 187.901348 222.166666 
L 189.583383 218.406788 
L 191.23498 215.354558 
L 192.865985 215.354558 
L 194.497443 217.359167 
L 196.142252 218.249664 
L 197.788871 213.172839 
L 199.448503 221.039296 
L 202.832258 221.137323 
L 204.44335 208.476427 
L 206.071187 216.176262 
L 207.71147 182.155299 
L 209.40414 208.75545 
L 211.047365 196.04706 
L 212.640805 216.905283 
L 214.277128 210.580772 
L 215.942982 185.792288 
L 217.577043 189.494384 
L 219.246291 180.89099 
L 222.518824 180.89099 
L 224.194069 211.213421 
L 225.809687 213.614598 
L 227.550557 200.151858 
L 229.240964 193.465607 
L 230.948569 191.45704 
L 234.234566 191.45704 
L 235.85256 212.664734 
L 237.510494 199.822176 
L 239.171596 190.225779 
L 240.873657 186.07329 
L 242.558972 189.626969 
L 244.24293 192.529991 
L 245.833655 213.488741 
L 247.48661 207.821219 
L 250.779396 215.702085 
L 254.00916 215.702085 
L 255.688931 208.207657 
L 257.337134 215.61066 
L 263.896343 215.61066 
L 265.578377 214.380982 
L 267.233709 215.481241 
L 270.533171 215.580185 
L 282.065955 215.580185 
L 283.789514 206.689062 
L 285.490557 207.65634 
L 287.16501 215.481845 
L 288.82351 205.823311 
L 290.533152 205.823311 
L 292.150353 205.637296 
L 293.751261 215.422349 
L 358.166516 215.422349 
L 359.903313 199.508169 
L 361.429884 199.508169 
L 363.0825 201.487052 
L 364.682503 215.354876 
L 369.657663 215.354876 
L 371.257552 195.466306 
L 372.972852 187.855521 
L 377.909541 187.855521 
L 379.573359 211.260962 
L 381.178793 207.520873 
L 382.845666 205.450961 
L 384.510501 199.668663 
L 386.132115 204.54859 
L 387.852167 204.54859 
L 389.515305 204.254923 
L 391.136014 214.713322 
L 392.761023 204.818905 
L 394.437173 193.322384 
L 396.166389 185.719118 
L 397.839259 185.719118 
L 399.455894 198.910751 
L 401.057368 199.418928 
L 402.675701 179.292892 
L 404.292676 198.246638 
L 406.002431 198.618668 
L 407.736739 198.618668 
L 409.374759 202.770365 
L 410.972838 196.875667 
L 412.579517 178.835374 
L 414.20396 194.840583 
L 415.889162 208.167967 
L 417.546643 208.33736 
L 419.181382 174.29265 
L 420.8693 199.077499 
L 422.428231 167.304547 
L 424.164349 152.850783 
L 425.882024 134.269859 
L 427.514613 134.269859 
L 429.159988 152.443133 
L 430.786015 97.57107 
L 432.496222 173.716921 
L 434.095433 199.497023 
L 435.742392 205.389346 
L 437.366043 195.447436 
L 438.976455 166.744919 
L 440.561523 182.313191 
L 442.200901 171.887641 
L 443.890403 125.664486 
L 445.540529 115.809647 
L 447.205365 117.832066 
L 448.838633 98.192439 
L 450.489213 110.093444 
L 452.113316 134.338724 
L 453.790259 111.193704 
L 455.413909 121.469649 
L 457.078406 109.375505 
L 458.715747 135.006004 
L 460.342113 168.464964 
L 461.958296 128.824763 
L 463.615777 160.782939 
L 466.878353 160.782939 
L 468.473604 171.647405 
L 470.148963 171.930781 
L 471.783249 170.362714 
L 473.416291 166.454023 
L 475.031682 172.125503 
L 476.64662 174.104386 
L 478.297878 174.104386 
L 479.891206 176.167966 
L 481.598358 176.167966 
L 483.182408 174.232618 
L 484.823709 174.232618 
L 486.487527 167.343729 
L 489.814596 167.387264 
L 491.449109 165.907851 
L 493.128541 165.992547 
L 494.726733 170.073005 
L 496.358191 170.073005 
L 498.00085 162.301534 
L 499.674398 162.301534 
L 501.407914 164.323953 
L 504.705565 164.323953 
L 506.425956 160.371727 
L 508.025054 170.631842 
L 509.621889 168.696494 
L 532.399048 168.696494 
L 533.979703 163.925802 
L 535.614216 163.925802 
L 537.260269 173.829717 
L 538.867401 173.829717 
L 540.525787 173.631829 
L 542.150909 175.654248 
L 543.768676 180.082197 
L 545.364718 180.082197 
L 547.02435 162.75272 
L 548.631141 157.878334 
L 550.175024 161.143492 
L 551.781589 167.7775 
L 553.413273 167.508372 
L 555.041676 167.508372 
L 556.699384 163.599682 
L 558.317377 163.599682 
L 559.900182 169.659023 
L 561.479253 169.659023 
L 563.115576 173.588294 
L 564.701322 173.588294 
L 566.292839 189.517514 
L 567.999992 210.743809 
L 569.60701 159.580965 
L 571.191173 152.351708 
L 572.861213 155.577288 
L 574.389821 155.577288 
L 575.970589 165.462998 
L 577.569347 198.347291 
L 579.210649 179.274813 
L 580.860776 187.027287 
L 582.512034 199.633566 
L 584.08375 199.633566 
L 585.639739 191.247849 
L 587.238724 184.742864 
L 588.834088 186.641404 
L 590.482405 182.70026 
L 592.144751 159.004319 
L 593.78594 151.181397 
L 597.046253 151.181397 
L 598.615706 149.289584 
L 601.834042 149.289584 
L 603.38856 154.501963 
L 605.027259 154.501963 
L 606.656567 152.95131 
L 608.249555 147.005953 
L 609.867322 157.046807 
L 611.499572 155.279268 
L 613.112021 157.653929 
L 614.746194 157.653929 
L 616.355249 154.852621 
L 618.07349 152.937062 
L 619.667835 149.028371 
L 621.327919 151.05079 
L 622.977141 138.972477 
L 624.589137 135.020251 
L 626.090703 150.627309 
L 627.664682 146.756613 
L 629.285391 144.239474 
L 630.9543 140.946612 
L 632.58044 142.925495 
L 635.717989 142.925495 
L 637.358046 141.184078 
L 639.058297 143.162961 
L 640.585094 146.724951 
L 643.788382 146.724951 
L 645.397889 148.786948 
L 646.987935 141.779326 
L 648.592011 142.737105 
L 655.045428 142.737105 
L 656.661159 209.872704 
L 661.42349 209.872704 
L 663.059134 172.400568 
L 664.634698 156.486387 
L 666.221349 158.904583 
L 667.866158 175.440133 
L 669.425315 162.320136 
L 670.999182 170.132767 
L 672.601674 168.240955 
L 674.247614 168.240955 
L 675.866739 148.287873 
L 677.414016 173.927908 
L 679.062559 175.710882 
L 680.682136 209.363773 
L 687.086787 209.363773 
L 688.700368 185.704243 
L 690.2946 189.462142 
L 691.931715 208.336733 
L 693.606508 208.336733 
L 695.13025 179.828938 
L 696.73659 179.520232 
L 698.368839 173.452976 
L 699.936596 163.772278 
L 701.503786 169.348771 
L 703.090098 169.348771 
L 704.714767 166.393903 
L 706.297459 177.255598 
L 707.899159 172.208654 
L 709.584588 171.262747 
L 711.183346 172.691501 
L 712.752234 172.691501 
L 714.346806 186.467988 
L 715.937983 180.992813 
L 717.601688 159.051745 
L 719.170349 140.078211 
L 720.82998 151.047162 
L 722.337317 151.047162 
L 723.935962 133.130351 
L 725.599553 188.380776 
L 727.147056 190.191059 
L 728.852285 98.556883 
L 730.34627 108.692724 
L 731.928736 108.692724 
L 733.461303 116.16103 
L 735.070132 106.791809 
L 736.706228 112.483077 
L 738.327503 65.785386 
L 739.890281 128.184726 
L 741.569486 128.006626 
L 743.167792 128.006626 
L 744.69606 128.246071 
L 746.369609 157.770616 
L 747.914396 159.590397 
L 749.482379 84.052459 
L 751.121191 60.48 
L 752.653872 60.48 
L 755.826383 96.042514 
L 757.430007 76.190355 
L 759.020053 206.736016 
L 762.263394 206.736016 
L 763.842465 198.800693 
L 765.40909 206.708312 
L 776.453648 206.708312 
L 778.024572 168.167578 
L 779.584408 172.96637 
L 781.126028 172.96637 
L 782.692539 164.95585 
L 784.259164 163.067995 
L 785.853171 173.029695 
L 787.399655 167.13658 
L 792.182579 167.13658 
L 793.684484 166.918903 
L 795.304627 165.953207 
L 801.761213 165.953207 
L 803.271377 164.061395 
L 804.87964 164.061395 
L 806.383808 162.382906 
L 812.810523 162.382906 
L 814.377487 164.361789 
L 816.028066 164.812975 
L 817.606911 166.791858 
L 820.788474 166.791858 
L 822.342087 164.85651 
L 830.263579 164.85651 
L 831.876933 166.835394 
L 852.473761 166.835394 
L 854.061318 173.911881 
L 855.640389 168.964672 
L 857.31224 167.029324 
L 860.479999 167.029324 
L 862.023429 168.853855 
L 929.256255 168.853855 
L 930.747638 166.918507 
L 932.353411 163.043853 
L 933.954545 167.00162 
L 933.954545 167.00162 
" style="fill:none;stroke:#d97e8e;stroke-linecap:square;stroke-width:1.5;"/>
   </g>
   <g id="line2d_24">
    <path clip-path="url(#p4ac0cd4d97)" d="M 173.045455 224.920678 
L 174.677025 220.835867 
L 176.336091 220.835867 
L 177.964833 220.667662 
L 179.620391 225.601018 
L 181.307969 225.578261 
L 182.976313 226.718098 
L 187.901348 226.718098 
L 189.583383 226.915986 
L 191.23498 223.863757 
L 192.865985 223.863757 
L 194.497443 225.868366 
L 196.142252 226.758863 
L 197.788871 221.682038 
L 199.448503 219.654078 
L 202.832258 219.654078 
L 204.44335 211.346725 
L 206.071187 219.046561 
L 207.71147 194.920014 
L 209.40414 185.504487 
L 211.047365 198.521582 
L 212.640805 219.379805 
L 214.277128 222.94971 
L 215.942982 208.055644 
L 217.577043 211.757739 
L 219.246291 203.154346 
L 222.518824 203.154346 
L 224.194069 233.476777 
L 225.809687 235.877954 
L 227.550557 242.194154 
L 229.240964 235.507902 
L 230.948569 233.499336 
L 234.234566 233.499336 
L 235.85256 254.707029 
L 237.510494 247.603234 
L 239.171596 238.006836 
L 240.873657 233.854347 
L 242.558972 237.408026 
L 244.24293 240.311048 
L 245.833655 261.269798 
L 247.48661 265.496693 
L 249.164684 279.348086 
L 250.779396 280.733304 
L 254.00916 280.733304 
L 255.688931 279.175527 
L 257.337134 286.57853 
L 263.896343 286.57853 
L 265.578377 295.243269 
L 267.233709 296.343528 
L 270.533171 296.442472 
L 282.065955 296.442472 
L 285.490557 298.413044 
L 287.16501 298.413044 
L 288.82351 296.670044 
L 290.533152 296.670044 
L 292.150353 286.589612 
L 293.751261 284.472207 
L 358.166516 284.472207 
L 359.903313 288.34686 
L 361.429884 288.34686 
L 363.0825 290.325744 
L 364.682503 284.343183 
L 371.257552 284.243448 
L 372.972852 276.632662 
L 377.909541 276.632662 
L 379.573359 280.249269 
L 381.178793 276.50918 
L 382.845666 274.439268 
L 384.510501 268.65697 
L 386.132115 263.64248 
L 387.852167 263.64248 
L 389.515305 273.24323 
L 391.136014 254.018378 
L 392.761023 254.018378 
L 394.437173 258.352924 
L 396.166389 250.749658 
L 397.839259 250.749658 
L 399.455894 234.25804 
L 401.057368 224.8718 
L 402.675701 244.323432 
L 404.292676 241.50946 
L 406.002431 222.092656 
L 407.736739 222.092656 
L 409.374759 206.455519 
L 410.972838 220.349655 
L 412.579517 241.887031 
L 414.20396 257.89224 
L 415.889162 261.325207 
L 417.546643 261.4946 
L 419.181382 296.710809 
L 420.8693 293.771178 
L 422.428231 301.575894 
L 424.164349 287.122129 
L 425.882024 268.541206 
L 427.514613 268.541206 
L 429.159988 286.714479 
L 430.786015 231.842417 
L 432.496222 230.811814 
L 434.095433 274.401867 
L 435.742392 262.484239 
L 437.366043 252.542329 
L 438.976455 340.593934 
L 440.561523 356.162206 
L 442.200901 397.187625 
L 443.890403 350.96447 
L 445.540529 341.109631 
L 447.205365 343.13205 
L 448.838633 323.492423 
L 450.489213 335.393428 
L 452.113316 359.638708 
L 453.790259 336.493688 
L 455.413909 346.769633 
L 457.078406 334.675489 
L 458.715747 281.150651 
L 460.342113 314.609612 
L 461.958296 274.96941 
L 463.615777 247.561084 
L 466.878353 247.561084 
L 468.473604 258.425549 
L 470.148963 258.708925 
L 471.783249 256.745081 
L 473.416291 252.836391 
L 475.031682 258.507871 
L 476.64662 260.486754 
L 478.297878 260.486754 
L 479.891206 262.550334 
L 481.598358 262.550334 
L 483.182408 260.614986 
L 484.823709 260.614986 
L 486.487527 253.726097 
L 489.814596 253.769632 
L 491.449109 226.564735 
L 493.128541 226.649431 
L 494.726733 230.729888 
L 496.358191 230.729888 
L 498.00085 222.958417 
L 499.674398 222.958417 
L 501.407914 224.980836 
L 504.705565 224.980836 
L 506.425956 221.02861 
L 508.025054 231.288725 
L 509.621889 229.353377 
L 532.399048 229.353377 
L 533.979703 224.582685 
L 535.614216 224.582685 
L 537.260269 234.486601 
L 538.867401 234.486601 
L 540.525787 234.288712 
L 542.150909 236.311131 
L 543.768676 240.739081 
L 545.364718 240.739081 
L 547.02435 223.409603 
L 548.631141 218.535217 
L 550.175024 221.800375 
L 551.781589 192.814482 
L 553.413273 192.545354 
L 555.041676 192.545354 
L 556.699384 188.636663 
L 558.317377 188.636663 
L 559.900182 194.696004 
L 561.479253 194.696004 
L 563.115576 198.625275 
L 564.701322 198.625275 
L 566.292839 214.554495 
L 567.999992 235.780791 
L 569.60701 224.195615 
L 571.191173 216.966358 
L 572.861213 220.191938 
L 574.389821 220.191938 
L 575.970589 230.077648 
L 577.569347 262.961942 
L 579.210649 243.889463 
L 580.860776 251.641937 
L 582.512034 264.248216 
L 584.08375 264.248216 
L 585.639739 255.862499 
L 587.238724 249.357514 
L 588.834088 251.256055 
L 590.482405 247.31491 
L 592.144751 263.196637 
L 593.78594 255.373715 
L 597.046253 255.373715 
L 598.615706 253.481903 
L 601.834042 253.481903 
L 603.38856 258.694282 
L 605.027259 258.694282 
L 606.656567 257.143629 
L 608.249555 251.198271 
L 609.867322 261.239126 
L 611.499572 259.471587 
L 613.112021 261.846247 
L 614.746194 261.846247 
L 616.355249 259.04494 
L 618.07349 257.129381 
L 619.667835 253.22069 
L 621.327919 255.243109 
L 622.977141 243.164796 
L 624.589137 239.21257 
L 626.090703 254.819628 
L 627.664682 250.948932 
L 629.285391 248.431792 
L 630.9543 245.13893 
L 632.58044 247.117814 
L 635.717989 247.117814 
L 637.358046 245.376396 
L 639.058297 247.35528 
L 640.585094 250.91727 
L 643.788382 250.91727 
L 645.397889 252.979266 
L 646.987935 245.971644 
L 648.592011 246.929424 
L 655.045428 246.929424 
L 656.661159 314.065023 
L 661.42349 314.065023 
L 663.059134 276.592886 
L 664.634698 260.678706 
L 666.221349 263.096901 
L 667.866158 279.632451 
L 669.425315 266.512454 
L 670.999182 264.430669 
L 672.601674 262.538856 
L 674.247614 262.538856 
L 677.414016 301.835523 
L 679.062559 303.618497 
L 680.682136 345.186922 
L 687.086787 345.186922 
L 688.700368 341.316226 
L 690.2946 345.074126 
L 691.931715 363.948716 
L 693.606508 363.948716 
L 695.13025 346.918445 
L 696.73659 346.60974 
L 698.368839 340.542483 
L 699.936596 330.861785 
L 701.503786 336.438279 
L 703.090098 336.438279 
L 704.714767 333.48341 
L 706.297459 344.345105 
L 707.899159 339.298161 
L 709.584588 338.352255 
L 711.183346 339.781009 
L 712.752234 339.781009 
L 714.346806 353.557495 
L 715.937983 348.082321 
L 717.601688 326.141253 
L 719.170349 307.167718 
L 720.82998 318.136669 
L 722.337317 318.136669 
L 723.935962 300.219859 
L 725.599553 355.470284 
L 727.147056 357.280566 
L 728.852285 325.012893 
L 730.34627 335.148734 
L 731.928736 335.148734 
L 733.461303 342.61704 
L 735.070132 333.247819 
L 736.706228 338.939088 
L 738.327503 292.241397 
L 739.890281 295.274233 
L 741.569486 295.096134 
L 743.167792 295.096134 
L 744.69606 295.335579 
L 746.369609 324.860124 
L 747.914396 386.046407 
L 749.482379 310.508469 
L 751.121191 286.93601 
L 752.653872 286.93601 
L 755.826383 322.498524 
L 757.430007 302.646366 
L 759.020053 429.192003 
L 762.263394 429.192003 
L 763.842465 427.19333 
L 765.40909 435.100949 
L 776.453648 435.100949 
L 778.024572 436.137883 
L 779.584408 440.936676 
L 781.126028 440.936676 
L 782.692539 432.926156 
L 784.259164 431.038301 
L 785.853171 441 
L 787.399655 435.106885 
L 792.182579 435.106885 
L 793.684484 430.931441 
L 795.304627 429.965746 
L 801.761213 429.965746 
L 803.271377 428.073933 
L 804.87964 428.073933 
L 806.383808 426.395445 
L 812.810523 426.395445 
L 814.377487 428.374328 
L 816.028066 428.825513 
L 817.606911 430.804397 
L 820.788474 430.804397 
L 822.342087 428.869049 
L 830.263579 428.869049 
L 831.876933 430.847932 
L 852.473761 430.847932 
L 854.061318 422.999681 
L 855.640389 418.052472 
L 857.31224 416.117124 
L 860.479999 416.117124 
L 862.023429 417.941655 
L 929.256255 417.941655 
L 930.747638 416.006307 
L 932.353411 412.131653 
L 933.954545 416.08942 
L 933.954545 416.08942 
" style="fill:none;stroke:#eca385;stroke-linecap:square;stroke-width:1.5;"/>
   </g>
   <g id="line2d_25">
    <path clip-path="url(#p4ac0cd4d97)" d="M 173.045455 219.801307 
L 174.677025 221.384414 
L 176.336091 222.373855 
L 177.964833 225.34218 
L 179.620391 218.416088 
L 181.307969 222.373855 
L 187.901348 222.373855 
L 189.583383 218.416088 
L 191.23498 222.373855 
L 197.788871 222.373855 
L 199.448503 232.268272 
L 201.134044 222.471882 
L 202.832258 222.373855 
L 204.44335 218.020312 
L 206.071187 222.373855 
L 207.71147 212.479438 
L 209.40414 258.389534 
L 211.047365 196.648371 
L 212.640805 222.373855 
L 214.277128 212.479438 
L 215.942982 212.479438 
L 217.577043 222.373855 
L 225.809687 222.373855 
L 227.550557 202.594916 
L 229.240964 222.373855 
L 235.85256 222.373855 
L 237.510494 216.635093 
L 239.171596 222.373855 
L 245.833655 222.373855 
L 247.48661 212.479438 
L 249.164684 212.479438 
L 250.779396 224.912528 
L 252.365822 222.373855 
L 254.00916 222.373855 
L 255.688931 216.437205 
L 257.337134 222.373855 
L 263.896343 222.373855 
L 265.578377 212.479438 
L 267.233709 222.373855 
L 282.065955 222.373855 
L 283.789514 212.479438 
L 285.490557 222.373855 
L 287.16501 230.19936 
L 288.82351 214.458322 
L 290.533152 222.373855 
L 292.150353 232.268272 
L 293.751261 234.276314 
L 295.428204 222.373855 
L 358.166516 222.373855 
L 359.903313 202.585021 
L 361.429884 222.373855 
L 363.0825 222.373855 
L 364.682503 242.22424 
L 366.345302 222.373855 
L 369.657663 222.373855 
L 371.257552 202.585021 
L 372.972852 222.373855 
L 377.909541 222.373855 
L 379.573359 242.16269 
L 381.178793 222.373855 
L 384.510501 222.373855 
L 386.132115 232.268272 
L 389.515305 212.479438 
L 391.136014 252.057107 
L 392.761023 212.479438 
L 394.437173 206.542788 
L 396.166389 222.373855 
L 397.839259 222.373855 
L 399.455894 252.057107 
L 401.057368 232.268272 
L 402.675701 182.796187 
L 404.292676 244.141573 
L 406.002431 242.16269 
L 407.736739 222.373855 
L 409.374759 242.16269 
L 410.972838 202.585021 
L 412.579517 182.796187 
L 414.20396 222.373855 
L 415.889162 232.268272 
L 417.546643 222.373855 
L 419.181382 153.112936 
L 420.8693 250.098337 
L 422.428231 182.796187 
L 424.164349 222.373855 
L 430.786015 222.373855 
L 432.496222 299.550309 
L 434.095433 204.563905 
L 435.742392 240.183806 
L 437.366043 222.373855 
L 438.976455 105.619733 
L 440.561523 222.373855 
L 442.200901 170.922886 
L 443.890403 222.373855 
L 457.078406 222.373855 
L 458.715747 301.529192 
L 460.342113 222.373855 
L 461.958296 222.373855 
L 463.615777 281.740358 
L 465.271788 222.373855 
L 470.148963 222.373855 
L 471.783249 222.769632 
L 473.416291 222.373855 
L 489.814596 222.373855 
L 491.449109 248.09934 
L 493.128541 222.373855 
L 550.175024 222.373855 
L 551.781589 257.993757 
L 553.413273 222.373855 
L 567.999992 222.373855 
L 569.60701 182.796187 
L 571.191173 222.373855 
L 590.482405 222.373855 
L 592.144751 182.796187 
L 593.78594 222.373855 
L 669.425315 222.373855 
L 670.999182 232.268272 
L 672.601674 222.373855 
L 674.247614 222.373855 
L 675.866739 182.798166 
L 677.414016 228.339831 
L 679.062559 222.373855 
L 680.682136 214.458322 
L 682.319025 222.373855 
L 687.086787 222.373855 
L 688.700368 202.585021 
L 690.2946 222.373855 
L 693.606508 222.373855 
L 695.13025 210.896331 
L 696.73659 222.373855 
L 727.147056 222.373855 
L 728.852285 163.007353 
L 730.34627 222.373855 
L 738.327503 222.373855 
L 739.890281 281.740358 
L 741.569486 222.373855 
L 746.369609 222.373855 
L 747.914396 163.007353 
L 749.482379 222.373855 
L 757.430007 222.373855 
L 759.020053 226.373879 
L 760.608289 222.373855 
L 762.263394 222.373855 
L 763.842465 216.437205 
L 765.40909 222.373855 
L 776.453648 222.373855 
L 778.024572 182.796187 
L 779.584408 222.373855 
L 792.182579 222.373855 
L 793.684484 226.331622 
L 795.304627 222.373855 
L 852.473761 222.373855 
L 854.061318 237.298594 
L 855.640389 222.373855 
L 933.954545 222.373855 
L 933.954545 222.373855 
" style="fill:none;stroke:#c0cca0;stroke-linecap:square;stroke-width:1.5;"/>
   </g>
   <g id="line2d_26">
    <path clip-path="url(#p4ac0cd4d97)" d="M 135 206.542788 
L 972 206.542788 
" style="fill:none;stroke:#e0bdc6;stroke-dasharray:5.55,2.4;stroke-dashoffset:0;stroke-width:1.5;"/>
   </g>
   <g id="line2d_27">
    <path clip-path="url(#p4ac0cd4d97)" d="M 135 135.302985 
L 972 135.302985 
" style="fill:none;stroke:#e0bdc6;stroke-dasharray:5.55,2.4;stroke-dashoffset:0;stroke-width:1.5;"/>
   </g>
   <g id="legend_1">
    <g id="patch_2">
     <path d="M 761.485937 133.328125 
L 962.2 133.328125 
Q 965 133.328125 965 130.528125 
L 965 70.28 
Q 965 67.48 962.2 67.48 
L 761.485937 67.48 
Q 758.685937 67.48 758.685937 70.28 
L 758.685937 130.528125 
Q 758.685937 133.328125 761.485937 133.328125 
z
" style="fill:#ffffff;opacity:0.8;stroke:#cccccc;stroke-linejoin:miter;"/>
    </g>
    <g id="line2d_28">
     <path d="M 764.285937 78.817812 
L 792.285937 78.817812 
" style="fill:none;stroke:#d97e8e;stroke-linecap:square;stroke-width:1.5;"/>
    </g>
    <g id="line2d_29"/>
    <g id="text_17">
     <!-- balance -->
     <defs>
      <path d="M 48.6875 27.296875 
Q 48.6875 37.203125 44.609375 42.84375 
Q 40.53125 48.484375 33.40625 48.484375 
Q 26.265625 48.484375 22.1875 42.84375 
Q 18.109375 37.203125 18.109375 27.296875 
Q 18.109375 17.390625 22.1875 11.75 
Q 26.265625 6.109375 33.40625 6.109375 
Q 40.53125 6.109375 44.609375 11.75 
Q 48.6875 17.390625 48.6875 27.296875 
z
M 18.109375 46.390625 
Q 20.953125 51.265625 25.265625 53.625 
Q 29.59375 56 35.59375 56 
Q 45.5625 56 51.78125 48.09375 
Q 58.015625 40.1875 58.015625 27.296875 
Q 58.015625 14.40625 51.78125 6.484375 
Q 45.5625 -1.421875 35.59375 -1.421875 
Q 29.59375 -1.421875 25.265625 0.953125 
Q 20.953125 3.328125 18.109375 8.203125 
L 18.109375 0 
L 9.078125 0 
L 9.078125 75.984375 
L 18.109375 75.984375 
z
" id="DejaVuSans-62"/>
      <path d="M 9.421875 75.984375 
L 18.40625 75.984375 
L 18.40625 0 
L 9.421875 0 
z
" id="DejaVuSans-6c"/>
      <path d="M 48.78125 52.59375 
L 48.78125 44.1875 
Q 44.96875 46.296875 41.140625 47.34375 
Q 37.3125 48.390625 33.40625 48.390625 
Q 24.65625 48.390625 19.8125 42.84375 
Q 14.984375 37.3125 14.984375 27.296875 
Q 14.984375 17.28125 19.8125 11.734375 
Q 24.65625 6.203125 33.40625 6.203125 
Q 37.3125 6.203125 41.140625 7.25 
Q 44.96875 8.296875 48.78125 10.40625 
L 48.78125 2.09375 
Q 45.015625 0.34375 40.984375 -0.53125 
Q 36.96875 -1.421875 32.421875 -1.421875 
Q 20.0625 -1.421875 12.78125 6.34375 
Q 5.515625 14.109375 5.515625 27.296875 
Q 5.515625 40.671875 12.859375 48.328125 
Q 20.21875 56 33.015625 56 
Q 37.15625 56 41.109375 55.140625 
Q 45.0625 54.296875 48.78125 52.59375 
z
" id="DejaVuSans-63"/>
     </defs>
     <g transform="translate(803.485937 83.717812)scale(0.14 -0.14)">
      <use xlink:href="#DejaVuSans-62"/>
      <use x="63.476562" xlink:href="#DejaVuSans-61"/>
      <use x="124.755859" xlink:href="#DejaVuSans-6c"/>
      <use x="152.539062" xlink:href="#DejaVuSans-61"/>
      <use x="213.818359" xlink:href="#DejaVuSans-6e"/>
      <use x="277.197266" xlink:href="#DejaVuSans-63"/>
      <use x="332.177734" xlink:href="#DejaVuSans-65"/>
     </g>
    </g>
    <g id="line2d_30">
     <path d="M 764.285937 99.367187 
L 792.285937 99.367187 
" style="fill:none;stroke:#eca385;stroke-linecap:square;stroke-width:1.5;"/>
    </g>
    <g id="line2d_31"/>
    <g id="text_18">
     <!-- only bets and rewards -->
     <defs>
      <path d="M 32.171875 -5.078125 
Q 28.375 -14.84375 24.75 -17.8125 
Q 21.140625 -20.796875 15.09375 -20.796875 
L 7.90625 -20.796875 
L 7.90625 -13.28125 
L 13.1875 -13.28125 
Q 16.890625 -13.28125 18.9375 -11.515625 
Q 21 -9.765625 23.484375 -3.21875 
L 25.09375 0.875 
L 2.984375 54.6875 
L 12.5 54.6875 
L 29.59375 11.921875 
L 46.6875 54.6875 
L 56.203125 54.6875 
z
" id="DejaVuSans-79"/>
      <path d="M 44.28125 53.078125 
L 44.28125 44.578125 
Q 40.484375 46.53125 36.375 47.5 
Q 32.28125 48.484375 27.875 48.484375 
Q 21.1875 48.484375 17.84375 46.4375 
Q 14.5 44.390625 14.5 40.28125 
Q 14.5 37.15625 16.890625 35.375 
Q 19.28125 33.59375 26.515625 31.984375 
L 29.59375 31.296875 
Q 39.15625 29.25 43.1875 25.515625 
Q 47.21875 21.78125 47.21875 15.09375 
Q 47.21875 7.46875 41.1875 3.015625 
Q 35.15625 -1.421875 24.609375 -1.421875 
Q 20.21875 -1.421875 15.453125 -0.5625 
Q 10.6875 0.296875 5.421875 2 
L 5.421875 11.28125 
Q 10.40625 8.6875 15.234375 7.390625 
Q 20.0625 6.109375 24.8125 6.109375 
Q 31.15625 6.109375 34.5625 8.28125 
Q 37.984375 10.453125 37.984375 14.40625 
Q 37.984375 18.0625 35.515625 20.015625 
Q 33.0625 21.96875 24.703125 23.78125 
L 21.578125 24.515625 
Q 13.234375 26.265625 9.515625 29.90625 
Q 5.8125 33.546875 5.8125 39.890625 
Q 5.8125 47.609375 11.28125 51.796875 
Q 16.75 56 26.8125 56 
Q 31.78125 56 36.171875 55.265625 
Q 40.578125 54.546875 44.28125 53.078125 
z
" id="DejaVuSans-73"/>
      <path d="M 45.40625 46.390625 
L 45.40625 75.984375 
L 54.390625 75.984375 
L 54.390625 0 
L 45.40625 0 
L 45.40625 8.203125 
Q 42.578125 3.328125 38.25 0.953125 
Q 33.9375 -1.421875 27.875 -1.421875 
Q 17.96875 -1.421875 11.734375 6.484375 
Q 5.515625 14.40625 5.515625 27.296875 
Q 5.515625 40.1875 11.734375 48.09375 
Q 17.96875 56 27.875 56 
Q 33.9375 56 38.25 53.625 
Q 42.578125 51.265625 45.40625 46.390625 
z
M 14.796875 27.296875 
Q 14.796875 17.390625 18.875 11.75 
Q 22.953125 6.109375 30.078125 6.109375 
Q 37.203125 6.109375 41.296875 11.75 
Q 45.40625 17.390625 45.40625 27.296875 
Q 45.40625 37.203125 41.296875 42.84375 
Q 37.203125 48.484375 30.078125 48.484375 
Q 22.953125 48.484375 18.875 42.84375 
Q 14.796875 37.203125 14.796875 27.296875 
z
" id="DejaVuSans-64"/>
      <path d="M 41.109375 46.296875 
Q 39.59375 47.171875 37.8125 47.578125 
Q 36.03125 48 33.890625 48 
Q 26.265625 48 22.1875 43.046875 
Q 18.109375 38.09375 18.109375 28.8125 
L 18.109375 0 
L 9.078125 0 
L 9.078125 54.6875 
L 18.109375 54.6875 
L 18.109375 46.1875 
Q 20.953125 51.171875 25.484375 53.578125 
Q 30.03125 56 36.53125 56 
Q 37.453125 56 38.578125 55.875 
Q 39.703125 55.765625 41.0625 55.515625 
z
" id="DejaVuSans-72"/>
      <path d="M 4.203125 54.6875 
L 13.1875 54.6875 
L 24.421875 12.015625 
L 35.59375 54.6875 
L 46.1875 54.6875 
L 57.421875 12.015625 
L 68.609375 54.6875 
L 77.59375 54.6875 
L 63.28125 0 
L 52.6875 0 
L 40.921875 44.828125 
L 29.109375 0 
L 18.5 0 
z
" id="DejaVuSans-77"/>
     </defs>
     <g transform="translate(803.485937 104.267187)scale(0.14 -0.14)">
      <use xlink:href="#DejaVuSans-6f"/>
      <use x="61.181641" xlink:href="#DejaVuSans-6e"/>
      <use x="124.560547" xlink:href="#DejaVuSans-6c"/>
      <use x="152.34375" xlink:href="#DejaVuSans-79"/>
      <use x="211.523438" xlink:href="#DejaVuSans-20"/>
      <use x="243.310547" xlink:href="#DejaVuSans-62"/>
      <use x="306.787109" xlink:href="#DejaVuSans-65"/>
      <use x="368.310547" xlink:href="#DejaVuSans-74"/>
      <use x="407.519531" xlink:href="#DejaVuSans-73"/>
      <use x="459.619141" xlink:href="#DejaVuSans-20"/>
      <use x="491.40625" xlink:href="#DejaVuSans-61"/>
      <use x="552.685547" xlink:href="#DejaVuSans-6e"/>
      <use x="616.064453" xlink:href="#DejaVuSans-64"/>
      <use x="679.541016" xlink:href="#DejaVuSans-20"/>
      <use x="711.328125" xlink:href="#DejaVuSans-72"/>
      <use x="752.410156" xlink:href="#DejaVuSans-65"/>
      <use x="813.933594" xlink:href="#DejaVuSans-77"/>
      <use x="895.720703" xlink:href="#DejaVuSans-61"/>
      <use x="957" xlink:href="#DejaVuSans-72"/>
      <use x="998.097656" xlink:href="#DejaVuSans-64"/>
      <use x="1061.574219" xlink:href="#DejaVuSans-73"/>
     </g>
    </g>
    <g id="line2d_32">
     <path d="M 764.285937 119.916562 
L 792.285937 119.916562 
" style="fill:none;stroke:#c0cca0;stroke-linecap:square;stroke-width:1.5;"/>
    </g>
    <g id="line2d_33"/>
    <g id="text_19">
     <!-- suspicious turnover -->
     <defs>
      <path d="M 18.109375 8.203125 
L 18.109375 -20.796875 
L 9.078125 -20.796875 
L 9.078125 54.6875 
L 18.109375 54.6875 
L 18.109375 46.390625 
Q 20.953125 51.265625 25.265625 53.625 
Q 29.59375 56 35.59375 56 
Q 45.5625 56 51.78125 48.09375 
Q 58.015625 40.1875 58.015625 27.296875 
Q 58.015625 14.40625 51.78125 6.484375 
Q 45.5625 -1.421875 35.59375 -1.421875 
Q 29.59375 -1.421875 25.265625 0.953125 
Q 20.953125 3.328125 18.109375 8.203125 
z
M 48.6875 27.296875 
Q 48.6875 37.203125 44.609375 42.84375 
Q 40.53125 48.484375 33.40625 48.484375 
Q 26.265625 48.484375 22.1875 42.84375 
Q 18.109375 37.203125 18.109375 27.296875 
Q 18.109375 17.390625 22.1875 11.75 
Q 26.265625 6.109375 33.40625 6.109375 
Q 40.53125 6.109375 44.609375 11.75 
Q 48.6875 17.390625 48.6875 27.296875 
z
" id="DejaVuSans-70"/>
      <path d="M 9.421875 54.6875 
L 18.40625 54.6875 
L 18.40625 0 
L 9.421875 0 
z
M 9.421875 75.984375 
L 18.40625 75.984375 
L 18.40625 64.59375 
L 9.421875 64.59375 
z
" id="DejaVuSans-69"/>
      <path d="M 2.984375 54.6875 
L 12.5 54.6875 
L 29.59375 8.796875 
L 46.6875 54.6875 
L 56.203125 54.6875 
L 35.6875 0 
L 23.484375 0 
z
" id="DejaVuSans-76"/>
     </defs>
     <g transform="translate(803.485937 124.816562)scale(0.14 -0.14)">
      <use xlink:href="#DejaVuSans-73"/>
      <use x="52.099609" xlink:href="#DejaVuSans-75"/>
      <use x="115.478516" xlink:href="#DejaVuSans-73"/>
      <use x="167.578125" xlink:href="#DejaVuSans-70"/>
      <use x="231.054688" xlink:href="#DejaVuSans-69"/>
      <use x="258.837891" xlink:href="#DejaVuSans-63"/>
      <use x="313.818359" xlink:href="#DejaVuSans-69"/>
      <use x="341.601562" xlink:href="#DejaVuSans-6f"/>
      <use x="402.783203" xlink:href="#DejaVuSans-75"/>
      <use x="466.162109" xlink:href="#DejaVuSans-73"/>
      <use x="518.261719" xlink:href="#DejaVuSans-20"/>
      <use x="550.048828" xlink:href="#DejaVuSans-74"/>
      <use x="589.257812" xlink:href="#DejaVuSans-75"/>
      <use x="652.636719" xlink:href="#DejaVuSans-72"/>
      <use x="693.734375" xlink:href="#DejaVuSans-6e"/>
      <use x="757.113281" xlink:href="#DejaVuSans-6f"/>
      <use x="818.294922" xlink:href="#DejaVuSans-76"/>
      <use x="877.474609" xlink:href="#DejaVuSans-65"/>
      <use x="938.998047" xlink:href="#DejaVuSans-72"/>
     </g>
    </g>
   </g>
  </g>
 </g>
 <defs>
  <clipPath id="p4ac0cd4d97">
   <rect height="380.52" width="837" x="135" y="60.48"/>
  </clipPath>
 </defs>
</svg>
